<svg id="Layer_1" enable-background="new 0 0 512 512" height="512" viewBox="0 0 512 512" width="512" xmlns="http://www.w3.org/2000/svg"><g><g fill="#555760"><path d="m132.98 450.75h-48.235c-4.143 0-7.5 3.357-7.5 7.5v46.25c0 4.143 3.357 7.5 7.5 7.5h28.221c2.99 0 5.695-1.776 6.883-4.521l20.015-46.25c1.004-2.317.772-4.985-.614-7.096-1.388-2.112-3.744-3.383-6.27-3.383z"/><path d="m427.255 450.75h-48.235c-2.525 0-4.882 1.271-6.269 3.383-1.387 2.11-1.618 4.778-.614 7.096l20.015 46.25c1.188 2.745 3.893 4.521 6.883 4.521h28.221c4.143 0 7.5-3.357 7.5-7.5v-46.25c-.001-4.143-3.359-7.5-7.501-7.5z"/></g><path d="m458.5 31.25v403.25c0 17.23-14.02 31.25-31.25 31.25h-342.5c-17.23 0-31.25-14.02-31.25-31.25v-403.25c0-17.23 14.02-31.25 31.25-31.25h342.5c17.23 0 31.25 14.02 31.25 31.25z" fill="#eef6ff"/><path d="m458.5 31.25v403.25c0 17.23-14.02 31.25-31.25 31.25h-31c17.26 0 31.25-13.99 31.25-31.25v-403.25c0-17.26-13.99-31.25-31.25-31.25h31c17.23 0 31.25 14.02 31.25 31.25z" fill="#dae6ef"/><path d="m458.5 414.5v20c0 17.23-14.02 31.25-31.25 31.25h-342.5c-17.23 0-31.25-14.02-31.25-31.25v-20z" fill="#a8b3ba"/><path d="m458.5 31.25v80h-405v-80c0-17.23 14.02-31.25 31.25-31.25h342.5c17.23 0 31.25 14.02 31.25 31.25z" fill="#a8b3ba"/><path d="m458.5 31.25v80h-135.04v-111.25h103.79c17.23 0 31.25 14.02 31.25 31.25z" fill="#555760"/><path d="m390.98 34.866c-4.143 0-7.5 3.357-7.5 7.5v30.057c0 4.143 3.357 7.5 7.5 7.5s7.5-3.357 7.5-7.5v-30.057c0-4.142-3.357-7.5-7.5-7.5z" fill="#36383f"/><g><circle cx="120.711" cy="57.395" fill="#555760" r="25.209"/><circle cx="192.625" cy="57.395" fill="#555760" r="25.209"/><g fill="#879299"><path d="m250.656 49.866h33.068c4.143 0 7.5-3.357 7.5-7.5s-3.357-7.5-7.5-7.5h-33.068c-4.143 0-7.5 3.357-7.5 7.5s3.358 7.5 7.5 7.5z"/><path d="m283.725 64.923h-33.068c-4.143 0-7.5 3.357-7.5 7.5s3.357 7.5 7.5 7.5h33.068c4.143 0 7.5-3.357 7.5-7.5s-3.358-7.5-7.5-7.5z"/></g></g><path d="m379.42 263c0 68.05-55.37 123.42-123.42 123.42-4.22 0-8.39-.21-12.5-.63-62.2-6.28-110.92-58.96-110.92-122.79s48.72-116.51 110.92-122.79c4.11-.42 8.28-.63 12.5-.63 68.05 0 123.42 55.37 123.42 123.42z" fill="#555760"/><path d="m379.42 263c0 68.05-55.37 123.42-123.42 123.42-4.22 0-8.39-.21-12.5-.63 62.2-6.28 110.92-58.96 110.92-122.79s-48.72-116.51-110.92-122.79c4.11-.42 8.28-.63 12.5-.63 68.05 0 123.42 55.37 123.42 123.42z" fill="#36383f"/><path d="m328.42 295.03c-12.3 27.77-40.1 47.14-72.42 47.14-43.72 0-79.17-35.45-79.17-79.17s35.45-79.17 79.17-79.17c32.32 0 60.12 19.37 72.42 47.14-14.84 3.11-25.98 16.27-25.98 32.03s11.14 28.92 25.98 32.03z" fill="#52deff"/><path d="m328.42 295.03c-12.3 27.77-40.1 47.14-72.42 47.14 15.57 0 40.64-19.23 40.64-39.67-10.36-10.15-16.7-24.27-16.7-39.5s6.34-29.35 16.7-39.5c2.51-16.79-25.07-39.67-40.64-39.67 32.32 0 60.12 19.37 72.42 47.14-14.84 3.11-25.98 16.27-25.98 32.03s11.14 28.92 25.98 32.03z" fill="#55baff"/><g fill="#a8b3ba"><path d="m90.329 357.084h21.534c4.143 0 7.5-3.357 7.5-7.5s-3.357-7.5-7.5-7.5h-21.534c-4.143 0-7.5 3.357-7.5 7.5s3.358 7.5 7.5 7.5z"/><path d="m133.396 372.142h-43.067c-4.143 0-7.5 3.357-7.5 7.5s3.357 7.5 7.5 7.5h43.067c4.143 0 7.5-3.357 7.5-7.5s-3.357-7.5-7.5-7.5z"/></g><g fill="#a8b3ba"><circle cx="382.48" cy="148.089" r="7.485"/><circle cx="412.48" cy="148.079" r="7.485"/></g><circle cx="338.148" cy="263" fill="#36383f" r="7.485"/><path d="m458.5 31.25v80h-31v-80c0-17.26-13.99-31.25-31.25-31.25h31c17.23 0 31.25 14.02 31.25 31.25z" fill="#36383f"/><path d="m427.5 414.5h31v20c0 17.23-14.02 31.25-31.25 31.25h-31c17.26 0 31.25-13.99 31.25-31.25z" fill="#879299"/></g></svg>