<svg version="1.1" xmlns="http://www.w3.org/2000/svg" xmlns:xlink="http://www.w3.org/1999/xlink">
	<symbol id="phone" viewBox="0 0 384 384">
		<g>
			<g>
				<path d="M353.188,252.052c-23.51,0-46.594-3.677-68.469-10.906c-10.719-3.656-23.896-0.302-30.438,6.417l-43.177,32.594
					c-50.073-26.729-80.917-57.563-107.281-107.26l31.635-42.052c8.219-8.208,11.167-20.198,7.635-31.448
					c-7.26-21.99-10.948-45.063-10.948-68.583C132.146,13.823,118.323,0,101.333,0H30.813C13.823,0,0,13.823,0,30.813
					C0,225.563,158.438,384,353.188,384c16.99,0,30.813-13.823,30.813-30.813v-70.323C384,265.875,370.177,252.052,353.188,252.052z" />
			</g>
		</g>
	</symbol>
	<symbol id="wallet" viewBox="0 0 469.341 469.341">
		<g>
			<g>
				<g>
					<path d="M437.337,384.007H362.67c-47.052,0-85.333-38.281-85.333-85.333c0-47.052,38.281-85.333,85.333-85.333h74.667
						c5.896,0,10.667-4.771,10.667-10.667v-32c0-22.368-17.35-40.559-39.271-42.323l-61.26-107
						c-5.677-9.896-14.844-16.969-25.813-19.906c-10.917-2.917-22.333-1.385-32.104,4.302L79.553,128.007H42.67
						c-23.531,0-42.667,19.135-42.667,42.667v256c0,23.531,19.135,42.667,42.667,42.667h362.667c23.531,0,42.667-19.135,42.667-42.667
						v-32C448.004,388.778,443.233,384.007,437.337,384.007z M360.702,87.411l23.242,40.596h-92.971L360.702,87.411z M121.953,128.007
						L300.295,24.184c4.823-2.823,10.458-3.573,15.844-2.135c5.448,1.458,9.99,4.979,12.813,9.906l0.022,0.039l-164.91,96.013H121.953
						z" />
					<path d="M437.337,234.674H362.67c-35.292,0-64,28.708-64,64c0,35.292,28.708,64,64,64h74.667c17.646,0,32-14.354,32-32v-64
						C469.337,249.028,454.983,234.674,437.337,234.674z M362.67,320.007c-11.76,0-21.333-9.573-21.333-21.333
						c0-11.76,9.573-21.333,21.333-21.333c11.76,0,21.333,9.573,21.333,21.333C384.004,310.434,374.431,320.007,362.67,320.007z" />
				</g>
			</g>
		</g>
	</symbol>
	<symbol id="next" viewBox="0 0 492.004 492.004">
		<g>
			<g>
				<path d="M382.678,226.804L163.73,7.86C158.666,2.792,151.906,0,144.698,0s-13.968,2.792-19.032,7.86l-16.124,16.12
					c-10.492,10.504-10.492,27.576,0,38.064L293.398,245.9l-184.06,184.06c-5.064,5.068-7.86,11.824-7.86,19.028
					c0,7.212,2.796,13.968,7.86,19.04l16.124,16.116c5.068,5.068,11.824,7.86,19.032,7.86s13.968-2.792,19.032-7.86L382.678,265
					c5.076-5.084,7.864-11.872,7.848-19.088C390.542,238.668,387.754,231.884,382.678,226.804z" />
			</g>
		</g>
	</symbol>
	<symbol id="filter" viewBox="-20 0 511 512">
		<path d="m338.433594 316.011719c-34.1875 0-62 27.8125-62 62s27.8125 62 62 62 62-27.8125 62-62-27.8125-62-62-62zm0 104c-23.160156 0-42-18.839844-42-42 0-23.160157 18.839844-42 42-42s42 18.839843 42 42c0 23.160156-18.839844 42-42 42zm0 0" />
		<path d="m462.433594 345.410156h-11.804688c-2.394531-8.277344-5.691406-16.234375-9.859375-23.785156l8.304688-8.304688c1.875-1.875 2.929687-4.417968 2.929687-7.074218 0-2.652344-1.054687-5.195313-2.933594-7.070313l-31.882812-31.859375c-3.902344-3.902344-10.234375-3.902344-14.136719 0l-8.292969 8.292969c-7.550781-4.167969-15.511718-7.464844-23.789062-9.855469v-11.730468c0-1.546876-.363281-3.007813-.992188-4.320313l31.664063-32.304687c1.832031-1.867188 2.859375-4.378907 2.859375-7v-52.398438c0-5.523438-4.476562-10-10-10h-140.542969v-35.1875c14.472657-3.902344 25.152344-17.136719 25.152344-32.824219 0-18.75-15.25-34-34-34-18.746094 0-34 15.25-34 34 0 14.839844 9.5625 27.480469 22.847656 32.109375v35.902344h-117.378906c.78125-3.273438 1.1875-6.652344 1.1875-10.101562 0-23.765626-19.332031-43.097657-43.101563-43.097657-23.765624 0-43.097656 19.332031-43.097656 43.097657 0 3.449218.40625 6.828124 1.191406 10.101562h-22.257812c-5.523438 0-10 4.476562-10 10v52.398438c0 2.621093 1.027344 5.132812 2.859375 7l38.6875 39.46875c3.863281 3.945312 10.195313 4.007812 14.140625.144531 3.945312-3.867188 4.007812-10.199219.140625-14.144531l-35.828125-36.550782v-38.316406h80.441406.011719.007813 283.539062v38.316406l-36.960938 37.707032h-31.640624c-5.523438 0-10 4.476562-10 10v11.730468c-8.28125 2.390625-16.238282 5.6875-23.789063 9.855469l-8.289063-8.292969c-3.90625-3.902344-10.234374-3.90625-14.140624 0l-31.882813 31.859375c-1.878906 1.875-2.933594 4.417969-2.933594 7.070313s1.054688 5.199218 2.929688 7.074218l8.304687 8.300782c-4.167968 7.554687-7.464844 15.511718-9.859375 23.789062h-11.777343c-5.523438 0-9.996094 4.472656-10 9.992188l-.027344 45.074218c0 2.652344 1.054687 5.199219 2.929687 7.074219 1.875 1.878907 4.417969 2.933594 7.070313 2.933594h11.804687c2.394531 8.277344 5.691407 16.234375 9.859375 23.785156l-8.355468 8.355469c-1.53125 1.53125-2.457032 3.441406-2.785157 5.425781l-62.5625 36.527344v-129.417969c0-2.617187-1.027343-5.128906-2.859375-7l-40.222656-41.03125c-3.867188-3.945312-10.195312-4.011718-14.140625-.144531s-4.007813 10.199219-.144531 14.144531l37.363281 38.117188v142.753906c0 3.582031 1.917969 6.890625 5.023437 8.671875 1.539063.886719 3.257813 1.328125 4.976563 1.328125 1.742187 0 3.488281-.453125 5.042969-1.363281l78.394531-45.773438 23.769531 23.789063c1.875 1.875 4.421875 2.929687 7.074219 2.929687s5.195313-1.054687 7.070313-2.929687l8.367187-8.367188c7.550781 4.167969 15.507813 7.46875 23.789063 9.859375v11.855469c0 5.523438 4.476562 10 10 10h45.070312c5.523438 0 10-4.476562 10-10v-11.855469c8.277344-2.390625 16.238281-5.691406 23.789062-9.859375l8.367188 8.367188c1.875 1.875 4.421875 2.929687 7.074219 2.929687 2.652343 0 5.195312-1.054687 7.070312-2.933593l31.859375-31.882813c3.902344-3.90625 3.902344-10.234375 0-14.136719l-8.359375-8.355468c4.167969-7.554688 7.46875-15.511719 9.859375-23.789063h11.804688c5.519531 0 10-4.476563 10-10v-45.074219c0-5.523437-4.476563-10-10-10zm-217.320313-279.421875c7.71875 0 14 6.277344 14 14 0 7.71875-6.28125 14-14 14-7.722656 0-14-6.28125-14-14 0-7.722656 6.277344-14 14-14zm-193.546875 71.910157c0-12.734376 10.363282-23.097657 23.101563-23.097657s23.101562 10.363281 23.101562 23.097657c0 3.558593-.8125 6.980468-2.339843 10.101562h-41.523438c-1.527344-3.121094-2.339844-6.542969-2.339844-10.101562zm400.867188 252.585937h-9.59375c-4.714844 0-8.785156 3.292969-9.777344 7.898437-2.453125 11.417969-6.917969 22.191407-13.269531 32.023438-2.558594 3.957031-2.007813 9.164062 1.328125 12.5l6.796875 6.792969-17.726563 17.738281-6.800781-6.804688c-3.332031-3.332031-8.542969-3.882812-12.5-1.328124-9.828125 6.351562-20.601563 10.816406-32.023437 13.269531-4.605469.992187-7.898438 5.066406-7.898438 9.777343v9.648438h-25.070312v-9.644531c0-4.714844-3.292969-8.789063-7.902344-9.777344-11.417969-2.457031-22.191406-6.917969-32.019532-13.269531-3.957031-2.558594-9.164062-2.007813-12.5 1.328125l-6.800781 6.800781-17.726562-17.734375 6.796875-6.796875c3.335937-3.332031 3.886718-8.542969 1.328125-12.5-6.351563-9.828125-10.816407-20.601562-13.269531-32.023438-.988282-4.605468-5.0625-7.898437-9.777344-7.898437h-9.585938l.011719-25.074219h9.574219c4.714844 0 8.789062-3.289062 9.777344-7.898437 2.453124-11.417969 6.917968-22.191407 13.269531-32.019531 2.558593-3.960938 2.007812-9.167969-1.328125-12.5l-6.734375-6.738282 17.734375-17.722656 6.730468 6.730469c3.335938 3.332031 8.542969 3.886719 12.5 1.328125 9.828126-6.351563 20.601563-10.816406 32.019532-13.269532 4.609375-.992187 7.898437-5.0625 7.898437-9.777343v-9.519531h25.074219v9.519531c0 4.714843 3.292969 8.785156 7.898438 9.777343 11.421874 2.453126 22.195312 6.917969 32.023437 13.269532 3.957031 2.558594 9.164063 2.007812 12.5-1.328125l6.730469-6.730469 17.734375 17.722656-6.738281 6.738282c-3.332032 3.332031-3.886719 8.539062-1.328126 12.496093 6.355469 9.832031 10.816407 20.605469 13.269532 32.023438.992187 4.609375 5.0625 7.898437 9.777344 7.898437h9.597656zm0 0" />
		<path d="m140.890625 74.65625v37.675781c0 5.523438 4.476563 10 10 10 5.519531 0 10-4.476562 10-10v-37.675781c16.113281-4.402344 28-19.164062 28-36.65625 0-20.953125-17.046875-38-38-38s-38 17.046875-38 38c0 17.492188 11.882813 32.253906 28 36.65625zm10-54.65625c9.921875 0 18 8.074219 18 18s-8.078125 18-18 18c-9.925781 0-18-8.074219-18-18s8.074219-18 18-18zm0 0" />
		<path d="m331.332031 74.65625v42.34375c0 5.523438 4.480469 10 10 10 5.523438 0 10-4.476562 10-10v-42.34375c16.117188-4.402344 28-19.164062 28-36.65625 0-20.953125-17.046875-38-38-38s-38 17.046875-38 38c0 17.492188 11.886719 32.253906 28 36.65625zm10-54.65625c9.925781 0 18 8.074219 18 18s-8.074219 18-18 18-18-8.074219-18-18 8.074219-18 18-18zm0 0" />
		<path d="m80.675781 272c-2.628906 0-5.207031 1.070312-7.070312 2.929688-1.859375 1.859374-2.929688 4.441406-2.929688 7.070312s1.070313 5.210938 2.929688 7.070312c1.863281 1.859376 4.441406 2.929688 7.070312 2.929688 2.640625 0 5.210938-1.070312 7.070313-2.929688 1.871094-1.859374 2.929687-4.441406 2.929687-7.070312s-1.058593-5.210938-2.929687-7.070312c-1.859375-1.859376-4.429688-2.929688-7.070313-2.929688zm0 0" />
	</symbol>
	<symbol id="car" viewBox="-85 0 512 512.00085">
		<path d="m76.777344 93.945312c18.847656 0 34.125-15.277343 34.125-34.125 0-18.84375-15.277344-34.125-34.125-34.125-18.84375 0-34.121094 15.28125-34.121094 34.125 0 18.847657 15.277344 34.125 34.121094 34.125zm0-51.1875c9.425781 0 17.0625 7.640626 17.0625 17.0625 0 9.421876-7.640625 17.0625-17.0625 17.0625s-17.0625-7.640624-17.0625-17.0625c0-9.421874 7.640625-17.0625 17.0625-17.0625zm0 0" />
		<path d="m76.777344 435.179688c-14.132813 0-25.589844 11.457031-25.589844 25.59375 0 14.132812 11.457031 25.589843 25.589844 25.589843 14.136718 0 25.59375-11.457031 25.59375-25.589843 0-14.136719-11.457032-25.59375-25.59375-25.59375zm0 34.125c-4.710938 0-8.53125-3.820313-8.53125-8.53125 0-4.710938 3.820312-8.53125 8.53125-8.53125 4.710937 0 8.53125 3.820312 8.53125 8.53125 0 4.710937-3.820313 8.53125-8.53125 8.53125zm0 0" />
		<path d="m110.902344 111.003906h-3.523438c28.320313-16.898437 37.578125-53.558594 20.679688-81.878906-16.902344-28.320312-53.558594-37.578125-81.878906-20.679688-28.324219 16.902344-37.582032 53.558594-20.679688 81.882813 5.070312 8.5 12.175781 15.605469 20.679688 20.675781h-3.523438c-23.546875.03125-42.6289062 19.109375-42.65625 42.65625v119.433594c0 4.710938 3.820312 8.53125 8.53125 8.53125h9.050781l7.523438 120.496094c.566406 9.003906 8.042969 16.015625 17.0625 15.996094h6.40625c-23.578125 15.59375-30.050781 47.351562-14.453125 70.929687 15.59375 23.578125 47.351562 30.050781 70.929687 14.453125 23.578125-15.59375 30.046875-47.347656 14.453125-70.925781-3.796875-5.742188-8.714844-10.660157-14.453125-14.457031h6.40625c9.023438.019531 16.496094-6.992188 17.0625-15.996094l7.453125-120.496094h9.054688c4.710937 0 8.53125-3.820312 8.53125-8.53125v-119.433594c-.03125-23.546875-19.113282-42.625-42.65625-42.65625zm-76.777344-51.183594c0-23.558593 19.097656-42.652343 42.652344-42.652343 23.558594 0 42.65625 19.09375 42.65625 42.652343 0 23.558594-19.097656 42.65625-42.65625 42.65625-23.546875-.03125-42.625-19.109374-42.652344-42.65625zm42.652344 435.074219c-18.84375 0-34.121094-15.277343-34.121094-34.121093 0-18.847657 15.277344-34.125 34.121094-34.125 18.847656 0 34.125 15.277343 34.125 34.125 0 18.84375-15.277344 34.121093-34.125 34.121093zm34.644531-85.308593v-8.53125zm0-8.53125h-69.289063l-7.464843-119.429688h84.21875zm25.074219-136.492188h-119.433594v-110.902344c0-14.132812 11.457031-25.59375 25.59375-25.59375h68.246094c14.132812 0 25.59375 11.460938 25.59375 25.59375zm0 0" />
		<path d="m264.457031 93.945312c18.847657 0 34.125-15.277343 34.125-34.125 0-18.84375-15.277343-34.125-34.125-34.125-18.84375 0-34.125 15.28125-34.125 34.125 0 18.847657 15.28125 34.125 34.125 34.125zm0-51.1875c9.421875 0 17.0625 7.640626 17.0625 17.0625 0 9.421876-7.640625 17.0625-17.0625 17.0625s-17.0625-7.640624-17.0625-17.0625c0-9.421874 7.640625-17.0625 17.0625-17.0625zm0 0" />
		<path d="m264.457031 435.179688c-14.132812 0-25.59375 11.457031-25.59375 25.59375 0 14.132812 11.460938 25.589843 25.59375 25.589843 14.136719 0 25.59375-11.457031 25.59375-25.589843 0-14.136719-11.457031-25.59375-25.59375-25.59375zm0 34.125c-4.710937 0-8.53125-3.820313-8.53125-8.53125 0-4.710938 3.820313-8.53125 8.53125-8.53125 4.710938 0 8.53125 3.820312 8.53125 8.53125 0 4.710937-3.820312 8.53125-8.53125 8.53125zm0 0" />
		<path d="m298.582031 111.003906h-3.523437c28.320312-16.898437 37.578125-53.558594 20.679687-81.878906-16.902343-28.320312-53.558593-37.578125-81.882812-20.679688-28.320313 16.902344-37.578125 53.558594-20.679688 81.882813 5.074219 8.5 12.179688 15.605469 20.679688 20.675781h-3.523438c-23.542969.03125-42.625 19.109375-42.652343 42.65625v119.433594c0 4.710938 3.820312 8.53125 8.53125 8.53125h9.050781l7.523437 120.496094c.5625 9.003906 8.039063 16.015625 17.0625 15.996094h6.40625c-23.578125 15.59375-30.050781 47.351562-14.453125 70.929687 15.59375 23.578125 47.351563 30.050781 70.929688 14.453125 23.578125-15.59375 30.046875-47.347656 14.453125-70.925781-3.796875-5.742188-8.714844-10.660157-14.453125-14.457031h6.40625c9.019531.019531 16.496093-6.992188 17.058593-15.996094l7.457032-120.496094h9.050781c4.714844 0 8.53125-3.820312 8.53125-8.53125v-119.433594c-.027344-23.546875-19.109375-42.625-42.652344-42.65625zm-76.777343-51.183594c0-23.558593 19.09375-42.652343 42.652343-42.652343 23.558594 0 42.65625 19.09375 42.65625 42.652343 0 23.558594-19.097656 42.65625-42.65625 42.65625-23.546875-.03125-42.625-19.109374-42.652343-42.65625zm42.652343 435.074219c-18.84375 0-34.125-15.277343-34.125-34.121093 0-18.847657 15.28125-34.125 34.125-34.125 18.847657 0 34.125 15.277343 34.125 34.125 0 18.84375-15.277343 34.121093-34.125 34.121093zm34.644531-85.308593v-8.53125zm0-8.53125h-69.289062l-7.464844-119.429688h84.21875zm25.070313-136.492188h-119.429687v-110.902344c0-14.132812 11.457031-25.59375 25.589843-25.59375h68.25c14.132813 0 25.589844 11.460938 25.589844 25.59375zm0 0" />
	</symbol>
	<symbol id="sensor" viewBox="0 0 24 24">
		<path d="m15.25 18h-6.5c-1.517 0-2.75-1.233-2.75-2.75v-6.5c0-1.517 1.233-2.75 2.75-2.75h6.5c1.517 0 2.75 1.233 2.75 2.75v6.5c0 1.517-1.233 2.75-2.75 2.75zm-6.5-10.5c-.689 0-1.25.561-1.25 1.25v6.5c0 .689.561 1.25 1.25 1.25h6.5c.689 0 1.25-.561 1.25-1.25v-6.5c0-.689-.561-1.25-1.25-1.25z" />
		<path d="m15 21.25c-.414 0-.75-.336-.75-.75v-3c0-.414.336-.75.75-.75s.75.336.75.75v3c0 .414-.336.75-.75.75z" />
		<path d="m15 24c-1.103 0-2-.897-2-2s.897-2 2-2 2 .897 2 2-.897 2-2 2zm0-2.5c-.275 0-.5.224-.5.5s.225.5.5.5.5-.224.5-.5-.225-.5-.5-.5z" />
		<path d="m9 21.25c-.414 0-.75-.336-.75-.75v-3c0-.414.336-.75.75-.75s.75.336.75.75v3c0 .414-.336.75-.75.75z" />
		<path d="m9 24c-1.103 0-2-.897-2-2s.897-2 2-2 2 .897 2 2-.897 2-2 2zm0-2.5c-.275 0-.5.224-.5.5s.225.5.5.5.5-.224.5-.5-.225-.5-.5-.5z" />
		<path d="m9 7.25c-.414 0-.75-.336-.75-.75v-3c0-.414.336-.75.75-.75s.75.336.75.75v3c0 .414-.336.75-.75.75z" />
		<path d="m9 4c-1.103 0-2-.897-2-2s.897-2 2-2 2 .897 2 2-.897 2-2 2zm0-2.5c-.275 0-.5.224-.5.5s.225.5.5.5.5-.224.5-.5-.225-.5-.5-.5z" />
		<path d="m15 7.25c-.414 0-.75-.336-.75-.75v-3c0-.414.336-.75.75-.75s.75.336.75.75v3c0 .414-.336.75-.75.75z" />
		<path d="m15 4c-1.103 0-2-.897-2-2s.897-2 2-2 2 .897 2 2-.897 2-2 2zm0-2.5c-.275 0-.5.224-.5.5s.225.5.5.5.5-.224.5-.5-.225-.5-.5-.5z" />
		<path d="m6.5 15.75h-3c-.414 0-.75-.336-.75-.75s.336-.75.75-.75h3c.414 0 .75.336.75.75s-.336.75-.75.75z" />
		<path d="m2 17c-1.103 0-2-.897-2-2s.897-2 2-2 2 .897 2 2-.897 2-2 2zm0-2.5c-.275 0-.5.224-.5.5s.225.5.5.5.5-.224.5-.5-.225-.5-.5-.5z" />
		<path d="m6.5 9.75h-3c-.414 0-.75-.336-.75-.75s.336-.75.75-.75h3c.414 0 .75.336.75.75s-.336.75-.75.75z" />
		<path d="m2 11c-1.103 0-2-.897-2-2s.897-2 2-2 2 .897 2 2-.897 2-2 2zm0-2.5c-.275 0-.5.224-.5.5s.225.5.5.5.5-.224.5-.5-.225-.5-.5-.5z" />
		<path d="m20.5 9.75h-3c-.414 0-.75-.336-.75-.75s.336-.75.75-.75h3c.414 0 .75.336.75.75s-.336.75-.75.75z" />
		<path d="m22 11c-1.103 0-2-.897-2-2s.897-2 2-2 2 .897 2 2-.897 2-2 2zm0-2.5c-.275 0-.5.224-.5.5s.225.5.5.5.5-.224.5-.5-.225-.5-.5-.5z" />
		<path d="m20.5 15.75h-3c-.414 0-.75-.336-.75-.75s.336-.75.75-.75h3c.414 0 .75.336.75.75s-.336.75-.75.75z" />
		<path d="m22 17c-1.103 0-2-.897-2-2s.897-2 2-2 2 .897 2 2-.897 2-2 2zm0-2.5c-.275 0-.5.224-.5.5s.225.5.5.5.5-.224.5-.5-.225-.5-.5-.5z" />
	</symbol>
	<symbol id="idea" viewBox="0 0 512.002 512.002">
		<g>
			<circle cx="25.001" cy="125.002" r="25" />
			<circle cx="487.001" cy="125.002" r="25" />
			<circle cx="75.001" cy="25.002" r="25" />
			<circle cx="29.001" cy="238.002" r="25" />
			<path d="m312.141 441.968c-10.514-3.387-21.782 2.383-25.174 12.895l-5.529 17.14h-51.873l-5.529-17.14c-3.392-10.513-14.661-16.288-25.174-12.895-10.513 3.391-16.285 14.662-12.895 25.174l10 31c2.665 8.262 10.354 13.86 19.034 13.86h81c8.68 0 16.369-5.599 19.034-13.86l10-31c3.391-10.512-2.382-21.783-12.894-25.174z" />
			<circle cx="484.001" cy="238.002" r="25" />
			<circle cx="439.001" cy="25.002" r="25" />
			<path d="m297.001 181.002h-44.136l37.41-52.375c6.421-8.988 4.339-21.479-4.649-27.899-8.987-6.422-21.479-4.34-27.899 4.649l-60 84c-4.354 6.097-4.938 14.115-1.509 20.776 3.428 6.662 10.291 10.849 17.783 10.849h43.689l-35.855 49.225c-6.503 8.929-4.537 21.438 4.391 27.941 3.554 2.589 7.675 3.835 11.759 3.835 6.176 0 12.269-2.852 16.183-8.226l59-81c4.431-6.083 5.072-14.138 1.659-20.845-3.413-6.706-10.301-10.93-17.826-10.93z" />
			<path d="m256.001.002c.145-.003-.144-.003 0 0z" />
			<path d="m387.1 51.442c-34.198-32.866-81.297-51.107-131.099-51.44-49.802.333-96.901 18.574-131.099 51.44-35.403 34.025-54.901 81.103-54.901 132.561 0 53.413 21.781 109.163 62.99 161.226 30.576 38.629 61.03 61.775 62.312 62.742 3.47 2.617 7.697 4.032 12.043 4.032h96.356c4.319 0 8.522-1.398 11.98-3.985 1.292-.966 31.982-24.105 62.802-62.728 41.553-52.073 63.517-107.846 63.517-161.287 0-51.459-19.498-98.536-54.901-132.561zm-90.419 320.56h-82.266c-21.429-17.95-104.414-93.585-104.414-188 0-81.861 62.848-143.651 146-144 83.152.349 146 62.139 146 144 0 94.475-83.837 170.162-105.32 188z" />
		</g>
	</symbol>
	<symbol id="war" viewBox="0 0 512 512">
		<g>
			<path d="m484.574 181.429c-6.756-20.92-3.876-52.323-21.436-76.57-17.698-24.438-48.479-31.384-65.86-44.096-17.198-12.578-33.198-39.949-62.127-49.389-28.113-9.174-56.861 3.275-79.151 3.275-22.287 0-51.033-12.452-79.151-3.276-28.924 9.438-44.937 36.815-62.124 49.387-17.362 12.697-48.166 19.662-65.861 44.096-17.545 24.227-14.694 55.702-21.438 76.572-6.418 19.863-27.426 43.702-27.426 74.574 0 30.891 20.984 54.638 27.426 74.573 6.756 20.92 3.876 52.323 21.436 76.57 17.697 24.439 48.477 31.384 65.86 44.097 17.195 12.576 33.198 39.949 62.127 49.388 28.094 9.168 56.887-3.275 79.151-3.275 22.233 0 51.093 12.43 79.151 3.276 28.925-9.438 44.928-36.809 62.124-49.387 17.362-12.697 48.166-19.662 65.861-44.096 17.546-24.228 14.693-55.7 21.438-76.572 6.418-19.864 27.426-43.703 27.426-74.574 0-30.889-20.979-54.629-27.426-74.573zm-38.061 136.847c-7.875 24.375-5.812 51.654-15.772 65.408-10.094 13.937-36.613 20.303-57.076 35.271-20.239 14.801-34.424 38.264-50.922 43.647-15.608 5.094-41.044-5.249-66.742-5.249-25.886 0-51.06 10.365-66.743 5.249-16.496-5.383-30.661-28.83-50.922-43.648-20.342-14.877-47.012-21.374-57.077-35.272-9.928-13.708-7.943-41.176-15.77-65.405-7.672-23.739-25.489-44.294-25.489-62.275 0-17.999 17.801-38.483 25.487-62.274 7.875-24.374 5.812-51.655 15.772-65.408 10.088-13.928 36.627-20.315 57.077-35.271 20.303-14.849 34.399-38.256 50.92-43.647 15.595-5.088 41.114 5.249 66.743 5.249 25.933 0 51.044-10.372 66.743-5.249 16.494 5.382 30.671 28.838 50.923 43.648 20.339 14.877 47.011 21.374 57.076 35.271 9.93 13.711 7.934 41.151 15.77 65.405v.001c7.672 23.739 25.489 44.294 25.489 62.275 0 17.999-17.801 38.483-25.487 62.274zm-98.37-126.469c7.811 7.811 7.811 20.474 0 28.284l-100.106 100.106c-7.811 7.811-20.475 7.81-28.285 0l-55.894-55.894c-7.811-7.811-7.812-20.474-.001-28.284s20.476-7.811 28.284 0l41.753 41.752 85.963-85.963c7.811-7.811 20.475-7.811 28.286-.001z" />
		</g>
	</symbol>
	<symbol id="clock" viewBox="0 0 384 384">
		<path d="m343.59375 101.039062c-7.953125 3.847657-11.28125 13.417969-7.433594 21.367188 10.511719 21.714844 15.839844 45.121094 15.839844 69.59375 0 88.222656-71.777344 160-160 160s-160-71.777344-160-160 71.777344-160 160-160c36.558594 0 70.902344 11.9375 99.328125 34.519531 6.894531 5.503907 16.976563 4.351563 22.480469-2.566406 5.503906-6.914063 4.351562-16.984375-2.570313-22.480469-33.652343-26.746094-76-41.472656-119.238281-41.472656-105.863281 0-192 86.136719-192 192s86.136719 192 192 192 192-86.136719 192-192c0-29.335938-6.40625-57.449219-19.039062-83.527344-3.839844-7.96875-13.441407-11.289062-21.367188-7.433594zm0 0" />
		<path d="m192 64c-8.832031 0-16 7.167969-16 16v112c0 8.832031 7.167969 16 16 16h80c8.832031 0 16-7.167969 16-16s-7.167969-16-16-16h-64v-96c0-8.832031-7.167969-16-16-16zm0 0" />
	</symbol>
	<symbol id="percent" viewBox="0 0 384.075 384.075">
		<g>
			<g>
				<path d="M371.689,217.786c-4.664-9.448-9.48-19.216-9.48-25.752s4.816-16.304,9.464-25.744c8-16.248,17.072-34.664,9.608-52.656
					c-7.72-18.608-27.6-25.288-45.144-31.176c-9.184-3.08-19.592-6.576-23.784-10.76c-4.168-4.168-7.664-14.576-10.744-23.752
					c-5.88-17.544-12.552-37.432-31.168-45.152c-18-7.464-36.408,1.608-52.648,9.6c-9.448,4.656-19.216,9.464-25.768,9.464
					c-6.536,0-16.304-4.808-25.744-9.456c-16.24-8-34.672-17.064-52.656-9.608c-18.608,7.72-25.28,27.608-31.168,45.152
					c-3.088,9.176-6.576,19.584-10.76,23.76c-4.168,4.184-14.584,7.672-23.768,10.76c-17.536,5.888-37.424,12.568-45.152,31.168
					c-7.464,18,1.616,36.408,9.624,52.664c4.656,9.448,9.472,19.208,9.472,25.744s-4.816,16.304-9.464,25.752
					c-7.984,16.24-17.056,34.648-9.592,52.64c7.72,18.616,27.6,25.296,45.152,31.184c9.176,3.08,19.584,6.576,23.76,10.744
					c4.176,4.184,7.672,14.592,10.76,23.776c5.88,17.544,12.56,37.424,31.168,45.144c4.72,1.952,9.464,2.776,14.184,2.776
					c13.304,0,26.48-6.488,38.464-12.384c9.44-4.656,19.2-9.464,25.744-9.464s16.312,4.816,25.76,9.464
					c16.248,8,34.664,17.064,52.632,9.608c18.608-7.712,25.288-27.6,31.176-45.144c3.088-9.184,6.584-19.592,10.768-23.776
					c4.176-4.176,14.584-7.664,23.76-10.752c17.544-5.888,37.432-12.56,45.152-31.168C388.761,252.45,379.689,234.034,371.689,217.786
					z M342.961,231.922c4.504,9.144,10.672,21.656,8.76,26.256c-2.144,5.168-15.8,9.752-25.768,13.096
					c-13.136,4.408-26.712,8.968-36.2,18.464c-9.504,9.496-14.064,23.08-18.472,36.208c-3.352,9.976-7.936,23.632-13.104,25.768
					c-4.648,1.928-17.12-4.264-26.24-8.752c-12.736-6.272-25.896-12.76-39.896-12.76c-13.992,0-27.16,6.488-39.88,12.752
					c-9.136,4.504-21.608,10.688-26.256,8.76c-5.16-2.136-9.744-15.792-13.088-25.76c-4.408-13.136-8.968-26.72-18.472-36.224
					c-9.496-9.488-23.064-14.04-36.192-18.456c-9.968-3.344-23.632-7.936-25.776-13.112c-1.912-4.6,4.256-17.112,8.76-26.248
					c6.272-12.728,12.76-25.896,12.76-39.888s-6.496-27.16-12.768-39.888c-4.504-9.136-10.672-21.656-8.776-26.24
					c2.152-5.168,15.808-9.76,25.784-13.104c13.136-4.416,26.72-8.976,36.208-18.472c9.496-9.488,14.048-23.064,18.464-36.2
					c3.344-9.976,7.936-23.64,13.096-25.776c0.592-0.248,1.312-0.352,2.136-0.352c5.624,0,16.16,5.184,24.128,9.112
					c12.736,6.272,25.896,12.752,39.88,12.752c13.992,0,27.168-6.488,39.896-12.752c9.144-4.496,21.624-10.672,26.248-8.752
					c5.168,2.144,9.752,15.8,13.096,25.776c4.408,13.136,8.96,26.712,18.456,36.208c9.504,9.496,23.08,14.056,36.216,18.464
					c9.968,3.344,23.624,7.936,25.768,13.104c1.912,4.6-4.248,17.12-8.76,26.256c-6.264,12.728-12.752,25.896-12.752,39.88
					C330.209,206.026,336.697,219.194,342.961,231.922z" />
			</g>
		</g>
		<g>
			<g>
				<path d="M265.825,118.202c-6.248-6.248-16.384-6.248-22.632,0.008L118.257,243.25c-6.24,6.248-6.24,16.384,0.008,22.624
					c3.128,3.128,7.216,4.68,11.312,4.68c4.096,0,8.192-1.56,11.32-4.688l124.936-125.04
					C272.073,134.57,272.073,124.442,265.825,118.202z" />
			</g>
		</g>
		<g>
			<g>
				<path d="M135.953,101.706c-23.744,0-43.064,19.32-43.064,43.064c0,23.752,19.32,43.072,43.064,43.072
					c23.744,0,43.056-19.32,43.056-43.072C179.009,121.026,159.697,101.706,135.953,101.706z M135.953,155.842
					c-6.096,0-11.064-4.968-11.064-11.072s4.96-11.064,11.064-11.064c6.096,0,11.056,4.968,11.056,11.064
					C147.009,150.874,142.049,155.842,135.953,155.842z" />
			</g>
		</g>
		<g>
			<g>
				<path d="M248.129,196.226c-23.744,0-43.056,19.328-43.056,43.08c0,23.744,19.312,43.056,43.056,43.056
					c23.744,0,43.064-19.32,43.064-43.056C291.193,215.546,271.873,196.226,248.129,196.226z M248.129,250.362
					c-6.096,0-11.056-4.96-11.056-11.056c0-6.112,4.96-11.08,11.056-11.08c6.104,0,11.064,4.968,11.064,11.08
					C259.193,245.402,254.225,250.362,248.129,250.362z" />
			</g>
		</g>
	</symbol>
	<symbol id="arrow" viewBox="0 0 492.004 492.004">
		<g>
			<g>
				<path d="M382.678,226.804L163.73,7.86C158.666,2.792,151.906,0,144.698,0s-13.968,2.792-19.032,7.86l-16.124,16.12
					c-10.492,10.504-10.492,27.576,0,38.064L293.398,245.9l-184.06,184.06c-5.064,5.068-7.86,11.824-7.86,19.028
					c0,7.212,2.796,13.968,7.86,19.04l16.124,16.116c5.068,5.068,11.824,7.86,19.032,7.86s13.968-2.792,19.032-7.86L382.678,265
					c5.076-5.084,7.864-11.872,7.848-19.088C390.542,238.668,387.754,231.884,382.678,226.804z" />
			</g>
		</g>
	</symbol>
	<symbol id="seconds" viewBox="0 0 512.00002 512.00002">
		<g id="surface1">
			<path d="M 437.019531 74.980469 C 388.667969 26.628906 324.378906 0 256 0 C 187.621094 0 123.332031 26.628906 74.980469 74.980469 C 26.628906 123.332031 0 187.621094 0 256 C 0 324.378906 26.628906 388.667969 74.980469 437.019531 C 123.332031 485.371094 187.621094 512 256 512 C 298.703125 512 341.09375 501.191406 378.585938 480.742188 C 383.433594 478.097656 385.21875 472.023438 382.574219 467.175781 C 379.929688 462.324219 373.855469 460.539062 369.007812 463.183594 C 334.445312 482.035156 295.367188 492 256 492 C 125.871094 492 20 386.128906 20 256 C 20 125.867188 125.871094 20 256 20 C 386.132812 20 492 125.867188 492 256 C 492 319.039062 467.453125 378.304688 422.878906 422.878906 C 418.972656 426.78125 418.972656 433.113281 422.878906 437.019531 C 426.78125 440.925781 433.113281 440.925781 437.019531 437.019531 C 460.910156 413.128906 479.582031 385.183594 492.511719 353.96875 C 505.445312 322.75 512 289.789062 512 256 C 512 187.621094 485.371094 123.332031 437.019531 74.980469 Z M 437.019531 74.980469 " style=" stroke:none;fill-rule:nonzero;" />
			<path d="M 402.210938 441.253906 C 402.199219 441.261719 402.121094 441.324219 402.105469 441.332031 C 397.792969 444.769531 397.105469 451.019531 400.53125 455.339844 C 402.5 457.824219 405.421875 459.113281 408.371094 459.113281 C 410.554688 459.113281 412.753906 458.40625 414.59375 456.957031 L 414.757812 456.824219 C 419.0625 453.367188 419.738281 447.078125 416.28125 442.773438 C 412.820312 438.46875 406.515625 437.792969 402.210938 441.253906 Z M 402.210938 441.253906 " style=" stroke:none;fill-rule:nonzero;" />
			<path d="M 256 426 C 269.101562 426 282.171875 424.496094 294.847656 421.53125 C 295.109375 421.472656 295.359375 421.394531 295.613281 421.3125 C 332.464844 412.476562 365.691406 391.292969 389.238281 361.582031 C 412.945312 331.667969 426 294.171875 426 256 C 426 162.261719 349.738281 86 256 86 C 250.476562 86 246 90.476562 246 96 L 246 121.421875 C 246 126.945312 250.476562 131.421875 256 131.421875 C 261.523438 131.421875 266 126.945312 266 121.421875 L 266 106.339844 C 340.757812 111.285156 400.710938 171.242188 405.65625 246 L 390.578125 246 C 385.054688 246 380.578125 250.476562 380.578125 256 C 380.578125 261.523438 385.054688 266 390.578125 266 L 405.671875 266 C 401.382812 331.644531 355.144531 386.800781 290.277344 402.03125 C 290.125 402.066406 289.976562 402.117188 289.824219 402.160156 C 282.015625 403.960938 274.039062 405.125 266 405.65625 L 266 390.578125 C 266 385.054688 261.523438 380.578125 256 380.578125 C 250.476562 380.578125 246 385.054688 246 390.578125 L 246 405.660156 C 171.242188 400.710938 111.289062 340.757812 106.339844 266 L 121.421875 266 C 126.945312 266 131.421875 261.523438 131.421875 256 C 131.421875 250.476562 126.945312 246 121.421875 246 L 106.34375 246 C 108.132812 219.53125 116.984375 193.816406 131.847656 171.847656 L 236 276 C 241.328125 281.328125 248.429688 284.265625 256 284.261719 C 263.570312 284.261719 270.671875 281.328125 276 276 C 287.03125 264.972656 287.03125 247.027344 276 236 L 171.839844 131.835938 C 176.925781 128.394531 182.222656 125.253906 187.679688 122.460938 C 192.59375 119.945312 194.542969 113.921875 192.027344 109.003906 C 189.511719 104.089844 183.488281 102.140625 178.570312 104.65625 C 171.25 108.402344 164.183594 112.699219 157.472656 117.472656 L 156.398438 116.394531 C 145.367188 105.367188 127.421875 105.367188 116.394531 116.394531 C 105.367188 127.421875 105.367188 145.367188 116.394531 156.398438 L 117.476562 157.480469 C 97.125 186.128906 86 220.769531 86 256 C 86 349.738281 162.261719 426 256 426 Z M 130.539062 130.539062 C 133.769531 127.308594 139.027344 127.308594 142.257812 130.539062 L 261.859375 250.140625 C 265.089844 253.371094 265.089844 258.628906 261.859375 261.859375 C 258.628906 265.089844 253.375 265.089844 250.140625 261.859375 L 130.539062 142.257812 C 127.308594 139.027344 127.308594 133.769531 130.539062 130.539062 Z M 130.539062 130.539062 " style=" stroke:none;fill-rule:nonzero;" />
			<path d="M 208.578125 113.191406 C 209.574219 113.191406 210.585938 113.042969 211.585938 112.726562 L 211.902344 112.628906 C 217.191406 111.03125 220.179688 105.449219 218.582031 100.160156 C 216.984375 94.875 211.398438 91.890625 206.113281 93.484375 L 205.578125 93.648438 C 200.308594 95.308594 197.382812 100.925781 199.042969 106.191406 C 200.390625 110.460938 204.332031 113.191406 208.578125 113.191406 Z M 208.578125 113.191406 " style=" stroke:none;fill-rule:nonzero;" />
		</g>
	</symbol>
	<symbol id="elec" viewBox="0 0 512 512">
		<g>
			<path d="m473.574 252.432h-73.184v-43.761c0-11.473-9.334-20.807-20.807-20.807-9.886 0-34.295 0-44.302 0v-17.841c0-12.399-10.087-22.486-22.486-22.486h-17.595l14.724-47.535c16.759.692 30.539-12.75 30.539-29.284 0-16.164-13.151-29.315-29.315-29.315-29.268 0-40.455 38.51-15.541 54.154l-16.101 51.979h-30.133c-10.576 0-19.831 7.514-22.006 17.866-.106.507-.16 1.024-.16 1.542v20.919h-38.146v-18.801c0-8.673-7.057-15.73-15.73-15.73h-1.379v-19.572c9.469-.203 17.113-7.953 17.113-17.47v-15.616c0-9.517-7.644-17.267-17.113-17.47v-43.699c0-21.695-17.65-39.346-39.346-39.346h-51.677c-4.14 0-7.495 3.356-7.495 7.495s3.356 7.495 7.495 7.495h51.678c13.429 0 24.355 10.926 24.355 24.355v43.682h-37.957v-22.584c0-4.14-3.356-7.495-7.495-7.495h-96.2v-37.957h35.638c4.14 0 7.495-3.356 7.495-7.495s-3.355-7.495-7.495-7.495h-43.133c-4.14 0-7.495 3.356-7.495 7.495v52.947c0 4.14 3.356 7.495 7.495 7.495h96.2v15.109c-9.468.203-17.112 7.954-17.112 17.47v15.616c0 9.516 7.644 17.267 17.112 17.47v19.572h-1.379c-8.673 0-15.73 7.057-15.73 15.73v18.801h-22.555c-11.473 0-20.807 9.334-20.807 20.807v2.489l-33.402 7.589c-3.413.775-5.835 3.809-5.835 7.309v107.243c0 3.499 2.421 6.533 5.833 7.308l33.404 7.598v2.487c0 11.473 9.334 20.807 20.807 20.807h6.424v27.799h-15.127c-4.14 0-7.495 3.356-7.495 7.495 0 4.14 3.356 7.495 7.495 7.495h333.849c1.378 0 2.498 1.121 2.498 2.498v25.52c-15.836-2.83-32.418.103-46.707 8.811-16.754 10.211-37.57 10.212-54.324 0-21.567-13.144-48.361-13.145-69.928 0-16.754 10.211-37.57 10.212-54.324 0-21.567-13.144-48.361-13.145-69.928 0-16.754 10.212-37.57 10.212-54.324 0l-27.469-16.742v-20.087h10.676c4.14 0 7.495-3.356 7.495-7.495s-3.356-7.495-7.495-7.495h-18.172c-4.14 0-7.495 3.356-7.495 7.495v97.549c0 4.139 3.356 7.495 7.495 7.495h497.009c4.14 0 7.495-3.356 7.495-7.495 0-88.506 0-118.009 0-213.487.001-21.188-17.237-38.426-38.425-38.426zm-162.425-196.037c7.898 0 14.325 6.426 14.325 14.324s-6.426 14.325-14.325 14.325c-7.898 0-14.324-6.426-14.324-14.325s6.426-14.324 14.324-14.324zm-267.604 276.44-24.247-5.515v-95.277l24.247-5.509zm198.653-164.974c.947-3.125 3.867-5.333 7.176-5.333h63.42c4.133 0 7.495 3.362 7.495 7.495v17.841h-78.091zm-140.305-51.569v-15.616c0-1.378 1.121-2.498 2.498-2.498h67.185c1.378 0 2.498 1.121 2.498 2.498v15.616c0 1.378-1.121 2.498-2.498 2.498h-67.185c-1.377.001-2.498-1.12-2.498-2.498zm55.069 17.489v19.553h-37.957v-19.553zm-55.066 35.283c0-.407.332-.739.739-.739h70.696c.407 0 .739.332.739.739v18.801h-72.175v-18.801zm-.003 33.791h240.148v153.656h-240.148zm-37.542 153.656c-3.207 0-5.816-2.609-5.816-5.816v-142.023c0-3.207 2.609-5.816 5.816-5.816h22.551v153.656c-5.211-.001-17.488-.001-22.551-.001zm299.372 42.79h-277.957v-27.799h277.956v27.799zm7.495-42.794c-.029 0-.058.004-.087.004h-14.099v-153.656h22.551c3.207 0 5.816 2.609 5.816 5.816v142.024c0 3.207-2.609 5.816-5.816 5.816h-8.278c-.029 0-.058-.004-.087-.004zm125.791 140.343c-9.379 0-471.107 0-482.019 0v-44.916l19.667 11.987c21.567 13.145 48.361 13.145 69.928 0 16.754-10.211 37.57-10.212 54.324 0 21.568 13.145 48.361 13.145 69.928 0 16.754-10.211 37.57-10.212 54.324 0 21.568 13.145 48.361 13.145 69.928 0 17.097-10.421 37.941-9.986 54.324 0 21.567 13.144 48.362 13.144 69.928 0l19.667-11.987c.001 10.556.001 22.38.001 44.916zm0-62.472c-29.789 18.156-30.353 18.836-36.527 21.132v-44.257c0-4.139-3.356-7.495-7.495-7.495s-7.495 3.356-7.495 7.495v47.427c-19.472 1.172-28.984-7.688-38.506-11.836v-30.054c0-9.643-7.846-17.489-17.489-17.489h-10.783v-27.799c13.342 0 21.676-10.049 21.676-20.807v-31.755h45.102v62.331c0 4.139 3.356 7.495 7.495 7.495s7.495-3.356 7.495-7.495v-69.826c0-4.139-3.356-7.495-7.495-7.495h-52.597v-36.527h73.184c12.923 0 23.436 10.513 23.436 23.435v143.52z" />
			<path d="m211.024 227.153h-79.726c-4.14 0-7.495 3.356-7.495 7.495v90.07c0 4.14 3.356 7.495 7.495 7.495h79.726c4.14 0 7.495-3.356 7.495-7.495v-90.07c.001-4.139-3.355-7.495-7.495-7.495zm-7.495 90.07h-64.735v-75.079h64.735z" />
			<path d="m312.635 240.97h-64.505c-4.139 0-7.495 3.356-7.495 7.495 0 4.14 3.356 7.495 7.495 7.495h64.505c4.139 0 7.495-3.356 7.495-7.495.001-4.139-3.355-7.495-7.495-7.495z" />
			<path d="m312.635 272.188h-64.505c-4.139 0-7.495 3.356-7.495 7.495s3.356 7.495 7.495 7.495h64.505c4.139 0 7.495-3.356 7.495-7.495s-3.355-7.495-7.495-7.495z" />
			<path d="m312.635 303.406h-64.505c-4.139 0-7.495 3.356-7.495 7.495s3.356 7.495 7.495 7.495h64.505c4.139 0 7.495-3.356 7.495-7.495s-3.355-7.495-7.495-7.495z" />
			<path d="m161.899 287.179h7.548l-2.904 7.432c-1.507 3.855.397 8.202 4.253 9.709.896.35 1.819.516 2.726.516 2.997 0 5.826-1.809 6.983-4.769l6.9-17.655c.902-2.307.606-4.91-.791-6.955s-3.713-3.268-6.19-3.268h-7.548l2.904-7.432c1.507-3.855-.397-8.202-4.253-9.709-3.855-1.509-8.203.396-9.709 4.253l-6.9 17.655c-.902 2.307-.606 4.91.791 6.955 1.396 2.044 3.713 3.268 6.19 3.268z" />
		</g>
	</symbol>
	<symbol id="tech" viewBox="0 0 480 480">
		<path d="m472 0h-464c-4.417969 0-8 3.582031-8 8v464c0 4.417969 3.582031 8 8 8h464c4.417969 0 8-3.582031 8-8v-464c0-4.417969-3.582031-8-8-8zm-8 464h-448v-448h448zm0 0" />
		<path d="m72 112c22.089844 0 40-17.910156 40-40s-17.910156-40-40-40-40 17.910156-40 40c.027344 22.082031 17.917969 39.972656 40 40zm0-64c13.253906 0 24 10.746094 24 24s-10.746094 24-24 24-24-10.746094-24-24 10.746094-24 24-24zm0 0" />
		<path d="m72 448c22.089844 0 40-17.910156 40-40s-17.910156-40-40-40-40 17.910156-40 40c.027344 22.082031 17.917969 39.972656 40 40zm0-64c13.253906 0 24 10.746094 24 24s-10.746094 24-24 24-24-10.746094-24-24 10.746094-24 24-24zm0 0" />
		<path d="m408 368c-22.089844 0-40 17.910156-40 40s17.910156 40 40 40 40-17.910156 40-40c-.027344-22.082031-17.917969-39.972656-40-40zm0 64c-13.253906 0-24-10.746094-24-24s10.746094-24 24-24 24 10.746094 24 24-10.746094 24-24 24zm0 0" />
		<path d="m408 112c21.050781-.003906 38.492188-16.320312 39.902344-37.324219 1.410156-21-13.699219-39.5-34.558594-42.316406s-40.332031 11.015625-44.542969 31.640625h-176.800781v16h176.800781c3.828125 18.613281 20.199219 31.976562 39.199219 32zm0-64c13.253906 0 24 10.746094 24 24s-10.746094 24-24 24-24-10.746094-24-24 10.746094-24 24-24zm0 0" />
		<path d="m320 384h-160c-4.417969 0-8 3.582031-8 8v48c0 4.417969 3.582031 8 8 8h160c4.417969 0 8-3.582031 8-8v-48c0-4.417969-3.582031-8-8-8zm-136 48h-16v-32h16zm32 0h-16v-32h16zm32 0h-16v-32h16zm32 0h-16v-32h16zm32 0h-16v-32h16zm0 0" />
		<path d="m104 160h24v16h-24v16h24v16h-24v16h24v16h-24v16h24v16h-24v16h24v16h-24v16h24v24h16v-24h16v24h16v-24h16v24h16v-24h16v24h16v-24h16v24h16v-24h16v24h16v-24h16v-16h-16v-16h16v-16h-16v-16h16v-16h-16v-16h16v-16h-16v-16h16v-16h-16v-16h16v-16h-16v-24h-16v24h-16v-24h-16v24h-16v-24h-16v24h-16v-24h-16v24h-16v-24h-16v24h-16v-24h-16v24h-24zm40 0h144v144h-144zm0 0" />
		<path d="m136 96h32c4.417969 0 8-3.582031 8-8v-32c0-4.417969-3.582031-8-8-8h-32c-4.417969 0-8 3.582031-8 8v32c0 4.417969 3.582031 8 8 8zm8-32h16v16h-16zm0 0" />
		<path d="m376 352c0-13.253906-10.746094-24-24-24s-24 10.746094-24 24 10.746094 24 24 24 24-10.746094 24-24zm-24 8c-4.417969 0-8-3.582031-8-8s3.582031-8 8-8 8 3.582031 8 8-3.582031 8-8 8zm0 0" />
		<path d="m416 352c13.253906 0 24-10.746094 24-24v-176c0-13.253906-10.746094-24-24-24h-48c-13.253906 0-24 10.746094-24 24s10.746094 24 24 24h24v152c0 13.253906 10.746094 24 24 24zm-48-192c-4.417969 0-8-3.582031-8-8s3.582031-8 8-8h48c4.417969 0 8 3.582031 8 8v176c0 4.417969-3.582031 8-8 8s-8-3.582031-8-8v-160c0-4.417969-3.582031-8-8-8zm0 0" />
		<path d="m40 152v176c0 13.253906 10.746094 24 24 24s24-10.746094 24-24v-176c0-13.253906-10.746094-24-24-24s-24 10.746094-24 24zm32 0v176c0 4.417969-3.582031 8-8 8s-8-3.582031-8-8v-176c0-4.417969 3.582031-8 8-8s8 3.582031 8 8zm0 0" />
		<path d="m344 312h32v-16h-16v-88h16v-16h-32zm0 0" />
	</symbol>
</svg>
